<svg width="76" height="87" viewBox="0 0 76 87" fill="none" xmlns="http://www.w3.org/2000/svg">
<path d="M37.9963 0C34.9936 0 32.5678 2.41983 32.5678 5.415V8.664C20.184 11.1684 10.8538 22.1 10.8538 35.1975V38.3788C10.8538 46.3321 7.91897 54.0146 2.62618 59.9711L1.37084 61.3756C-0.0541393 62.9663 -0.393421 65.2507 0.471747 67.1968C1.33691 69.1428 3.28778 70.395 5.42525 70.395H70.5673C72.7047 70.395 74.6386 69.1428 75.5208 67.1968C76.4029 65.2507 76.0467 62.9663 74.6217 61.3756L73.3663 59.9711C68.0735 54.0146 65.1388 46.349 65.1388 38.3788V35.1975C65.1388 22.1 55.8085 11.1684 43.4248 8.664V5.415C43.4248 2.41983 40.9989 0 37.9963 0ZM45.681 83.4756C47.7167 81.445 48.8533 78.6867 48.8533 75.81H37.9963H27.1393C27.1393 78.6867 28.2758 81.445 30.3115 83.4756C32.3472 85.5062 35.1124 86.64 37.9963 86.64C40.8801 86.64 43.6453 85.5062 45.681 83.4756Z" fill="white"/>
</svg>
