<svg width="70" height="61" viewBox="0 0 70 61" fill="none" xmlns="http://www.w3.org/2000/svg">
<path d="M0.800049 7.61508C0.800049 3.41489 4.20817 0 8.40005 0H27.4V15.2302C27.4 17.3362 29.0982 19.0377 31.2 19.0377H46.4V34.2679H26.45C24.8707 34.2679 23.6 35.541 23.6 37.1235C23.6 38.706 24.8707 39.9792 26.45 39.9792H46.4V53.3056C46.4 57.5057 42.9919 60.9206 38.8 60.9206H8.40005C4.20817 60.9206 0.800049 57.5057 0.800049 53.3056V7.61508ZM46.4 39.9792V34.2679H59.4744L54.8432 29.6274C53.7269 28.509 53.7269 26.7004 54.8432 25.5938C55.9594 24.4872 57.7644 24.4753 58.8688 25.5938L68.3688 35.1127C69.485 36.2311 69.485 38.0397 68.3688 39.1463L58.8688 48.6651C57.7525 49.7836 55.9475 49.7836 54.8432 48.6651C53.7388 47.5467 53.7269 45.7381 54.8432 44.6315L59.4744 39.9911H46.4V39.9792ZM46.4 15.2302H31.2V0L46.4 15.2302Z" fill="white"/>
</svg>
