<svg width="76" height="61" viewBox="0 0 76 61" fill="none" xmlns="http://www.w3.org/2000/svg">
<path d="M61.9993 7.42921C63.9943 6.76248 65.063 4.60751 64.398 2.60731C63.733 0.607119 61.5836 -0.464414 59.6005 0.190412L46.1818 4.67895C44.5311 1.88105 41.4793 -8.28385e-05 37.9999 -8.28385e-05C32.7511 -8.28385e-05 28.4999 4.26224 28.4999 9.52466C28.4999 9.88183 28.5236 10.2271 28.5593 10.5724L14.0005 15.43C12.0055 16.0967 10.9368 18.2517 11.6018 20.2519C12.2668 22.2521 14.4161 23.3236 16.4111 22.6569L32.5018 17.2754C33.0361 17.6564 33.6061 17.9779 34.2118 18.2517V57.1484C34.2118 59.2557 35.9099 60.9583 38.0118 60.9583H60.7999C62.9018 60.9583 64.5999 59.2557 64.5999 57.1484C64.5999 55.041 62.9018 53.3385 60.7999 53.3385H41.7999V18.2517C44.2936 17.1564 46.2174 15.0371 47.0486 12.4178L61.9993 7.41731V7.42921ZM14.9386 32.5507C14.9861 32.4555 15.093 32.3959 15.1999 32.3959C15.3068 32.3959 15.4018 32.4555 15.4611 32.5507L24.3318 49.5286H6.06801L14.9386 32.5388V32.5507ZM15.1999 26.6692C12.9674 26.6692 10.9249 27.9074 9.89176 29.8838L0.65301 47.5641C0.284885 48.2546 -0.0713646 49.2309 -0.000114645 50.3977C0.0830104 51.8383 0.569885 54.5886 2.94489 56.9579C5.35551 59.3629 9.23864 60.9583 15.1999 60.9583C21.1611 60.9583 25.0443 59.3629 27.4549 56.9698C29.8299 54.5886 30.3286 51.8502 30.3999 50.4096C30.4711 49.2428 30.103 48.2665 29.7468 47.576L20.508 29.8838C19.4749 27.9074 17.4324 26.6692 15.1999 26.6692ZM60.7999 17.1444C60.9068 17.1444 61.0018 17.204 61.0611 17.2992L69.9318 34.289H51.668L60.5386 17.2992C60.5861 17.204 60.693 17.1444 60.7999 17.1444ZM55.4918 14.6442L46.253 32.3245C45.8849 33.015 45.5286 33.9913 45.5999 35.1581C45.683 36.5987 46.1699 39.349 48.5449 41.7183C50.9555 44.1233 54.8386 45.7187 60.7999 45.7187C66.7611 45.7187 70.6443 44.1233 73.0549 41.7302C75.4299 39.349 75.9286 36.6106 75.9999 35.17C76.0711 34.0032 75.703 33.027 75.3468 32.3364L66.108 14.6442C65.0749 12.6678 63.0324 11.4296 60.7999 11.4296C58.5674 11.4296 56.5249 12.6678 55.4918 14.6442Z" fill="white"/>
</svg>
